<svg xmlns="http://www.w3.org/2000/svg" xml:space="preserve" viewBox="0 0 209.146 270.063">
  <g stroke-linecap="round" stroke-linejoin="round">
    <path stroke="#000" stroke-width=".787" d="M133.929 179.803c-12.3 6.71-24.415 16.87-27.025 29.639-4.957 24.253 25.864 33.562 33.335 37.365 5.113 2.603 9.024 4.975 10.273 5.962 4.987 3.939 8.03 5.663 13.597 16.9 0 0 6.812-36.879 13.123-78.476 5.703-37.587 9.505-64.32 9.505-64.32s-14.189 12.248-26.901 20.88c-6.655 4.52-21.536 12.117-31.961 14.014-11.437 2.082-26.705.47-32.558-2.492-6.535-3.308-14.973-7.055-17.823-21.96-1.862-9.737.34-27.646 9.714-41.71 7.872-11.81 13.771-18.126 29.365-30.31 18.983-14.832 54.999-26.606 62.81-21.94 3.553 2.122 4.18 4.74 5.267 7.633 1.363 3.628-2.54 11.684 1.333 11.55 5.333-.184 2.548-11.52.732-15.99-3.511-8.66-11.14-9.108-16.898-9-5.758.108-18.906 2.168-32.442 8.009-11.47 4.95-25.996 13.535-36.687 22.949-10.39 9.15-25.84 25.231-31.43 44.267-2.2 7.489-7.485 22.418 2.343 37.445 9.827 15.028 31.907 17.531 36.791 18.263 4.884.732 19.103.016 27.172-2.706 7.375-2.486 17.573-7.829 23.988-12.083 6.416-4.253 19.038-15.033 21.059-17.144 2.02-2.111 2.822-2.577 2.822-2.577l-10.341 65.707-9.138 60.699s-1.563-5.353-10.504-12.145c-3.19-2.424-7.213-4.248-12.588-7.17-19.951-10.842-26.425-17.55-26.403-27.607.023-10.425 6.392-17.574 9.553-20.465 3.16-2.89 8.698-7.717 14.093-10.663 8.94-4.882 25.874-10.799 31.488-12.351 5.614-1.553 39.2-7.437 39.2-7.437.032-.063-45.6 1.302-74.867 17.264z"/>
    <path stroke="#020302" stroke-width="2.328" d="M15.01 147.172c13.028 3.627 49.24 2.749 73.91-3.762 19.205-5.068 29.857-8.48 38.166-12.386 11.963-5.623 17.124-11.08 19.568-13.96 17.07-20.126 3.488-37.248-6.126-43.214-7.836-4.863-12.51-7.251-24.12-10.576-11.927-3.416-19.51-5.679-27.442-7.633-5.26-1.296-33.02-6.781-40.99-9.398-8.658-2.844-9.733-4.293-9.486-10.317.112-2.655 1.715-8.397 7.282-14.904 4.54-5.306 9.776-8.182 15.292-10.987C69.59 5.7 80.34 3.241 86.864 3.39c8.886.203 15.49 6.483 15.883 12.718.223 3.544-3.585 12.033-.504 11.327 3.082-.706 2.316-10.94 1.878-12.69-1.941-7.77-6.996-11.365-12.905-13.08C85.622.043 71.699 2.9 66.45 4.833c-2.767 1.019-6.875 2.651-11.4 5.018-3.694 1.932-7.861 4.465-10.2 6.634-6.474 6.003-11.639 12.627-12.666 19.48-.855 5.706 1.697 8.898 4.835 10.742 4.527 2.659 13.937 3.437 26.294 6.058 12.462 2.642 23.316 4.6 33.45 7.364 10.135 2.764 17.237 4.627 27.354 8.932 29.322 12.475 30.3 31.538 16.546 45.776-13.341 13.81-40.784 22.945-54.267 25.689-21.924 4.461-43.928 5.199-58.324 3.983-6.283-.53-13.011-2.63-16.698-6.644-3.687-4.014-4.807-6.984-4.591-11.698.279-6.075 2.025-9.914 4.467-14.153 4.025-6.988 8.185-11.17 16.167-17.522C14.69 100.507 7.19 109.798 3.515 116.89c-3.264 6.3-5.738 24.497 11.494 30.281z"/>
  </g>
</svg>